<svg width="369" height="134" viewBox="0 0 369 134" fill="none" xmlns="http://www.w3.org/2000/svg">
<circle cx="306.957" cy="72.1387" r="61.3847" fill="url(#paint0_radial_669_3177)"/>
<rect width="6.03469" height="6.03469" rx="3.01734" fill="#3B57F4"/>
<rect x="21.1213" width="6.03469" height="6.03469" rx="3.01734" fill="#3B57F4"/>
<rect x="42.2429" width="6.03469" height="6.03469" rx="3.01734" fill="#3B57F4"/>
<rect x="63.3643" width="6.03469" height="6.03469" rx="3.01734" fill="#3B57F4"/>
<rect x="84.4856" width="6.03469" height="6.03469" rx="3.01734" fill="#3B57F4"/>
<rect y="23.0347" width="6.03469" height="6.03469" rx="3.01734" fill="#3B57F4"/>
<rect x="21.1213" y="23.0347" width="6.03469" height="6.03469" rx="3.01734" fill="#3B57F4"/>
<rect x="42.2429" y="23.0347" width="6.03469" height="6.03469" rx="3.01734" fill="#3B57F4"/>
<rect x="63.3643" y="23.0347" width="6.03469" height="6.03469" rx="3.01734" fill="#3B57F4"/>
<rect x="84.4856" y="23.0347" width="6.03469" height="6.03469" rx="3.01734" fill="#3B57F4"/>
<rect y="46.0694" width="6.03469" height="6.03469" rx="3.01734" fill="#3B57F4"/>
<rect x="21.1213" y="46.0694" width="6.03469" height="6.03469" rx="3.01734" fill="#3B57F4"/>
<rect x="42.2429" y="46.0694" width="6.03469" height="6.03469" rx="3.01734" fill="#3B57F4"/>
<rect x="63.3643" y="46.0694" width="6.03469" height="6.03469" rx="3.01734" fill="#3B57F4"/>
<rect x="84.4856" y="46.0694" width="6.03469" height="6.03469" rx="3.01734" fill="#3B57F4"/>
<rect y="69.1041" width="6.03469" height="6.03469" rx="3.01734" fill="#3B57F4"/>
<rect x="21.1213" y="69.1041" width="6.03469" height="6.03469" rx="3.01734" fill="#3B57F4"/>
<rect x="42.2429" y="69.1041" width="6.03469" height="6.03469" rx="3.01734" fill="#3B57F4"/>
<rect x="63.3643" y="69.1041" width="6.03469" height="6.03469" rx="3.01734" fill="#3B57F4"/>
<rect x="84.4856" y="69.1041" width="6.03469" height="6.03469" rx="3.01734" fill="#3B57F4"/>
<rect y="92.1387" width="6.03469" height="6.03469" rx="3.01734" fill="#3B57F4"/>
<rect x="21.1213" y="92.1387" width="6.03469" height="6.03469" rx="3.01734" fill="#3B57F4"/>
<rect x="42.2429" y="92.1387" width="6.03469" height="6.03469" rx="3.01734" fill="#3B57F4"/>
<rect x="63.3643" y="92.1387" width="6.03469" height="6.03469" rx="3.01734" fill="#3B57F4"/>
<rect x="84.4856" y="92.1387" width="6.03469" height="6.03469" rx="3.01734" fill="#3B57F4"/>
<defs>
<radialGradient id="paint0_radial_669_3177" cx="0" cy="0" r="1" gradientUnits="userSpaceOnUse" gradientTransform="translate(317.449 41.0756) rotate(98.9468) scale(67.4621)">
<stop stop-color="#FFB020"/>
<stop offset="1" stop-color="#FC9801"/>
</radialGradient>
</defs>
</svg>
