<svg width="174" height="38" viewBox="0 0 174 38" fill="none" xmlns="http://www.w3.org/2000/svg">
<rect x="0.0123901" width="37.7628" height="37.7628" rx="7.43967" fill="#AB3ADD"/>
<rect x="0.0123901" width="37.7628" height="37.7628" rx="7.43967" fill="url(#paint0_linear_1317_3259)"/>
<path d="M17.6306 19.1821C17.6306 19.8879 17.0585 20.46 16.3527 20.46C15.647 20.46 15.0749 19.8879 15.0749 19.1821C15.0749 18.4764 15.647 17.9043 16.3527 17.9043C17.0585 17.9043 17.6306 18.4764 17.6306 19.1821Z" fill="white"/>
<path d="M21.3929 20.46C22.0986 20.46 22.6707 19.8879 22.6707 19.1821C22.6707 18.4764 22.0986 17.9043 21.3929 17.9043C20.6872 17.9043 20.1151 18.4764 20.1151 19.1821C20.1151 19.8879 20.6872 20.46 21.3929 20.46Z" fill="white"/>
<path fill-rule="evenodd" clip-rule="evenodd" d="M14.1842 13.2914C14.9337 11.4298 16.7581 10.1154 18.89 10.1143C18.8887 10.1143 18.8875 10.1143 18.8862 10.1143C18.8905 10.1142 18.8948 10.1142 18.8992 10.1143C18.8979 10.1143 18.8966 10.1143 18.8954 10.1143C21.0273 10.1154 22.8516 11.4298 23.6011 13.2914C24.5769 13.3581 25.5524 13.4456 26.5277 13.5537C27.7402 13.6882 28.6376 14.7269 28.6376 15.9468V25.0784C28.6376 26.3122 27.72 27.3577 26.4921 27.4793C21.4093 27.9826 16.3761 27.9826 11.2932 27.4793C10.0654 27.3577 9.14777 26.3122 9.14777 25.0784V15.9468C9.14777 14.7269 10.0452 13.6882 11.2577 13.5537C12.2329 13.4456 13.2085 13.3581 14.1842 13.2914ZM10.5261 24.0753L18.71 10.4307C18.7927 10.2928 18.9926 10.2928 19.0753 10.4307L27.2592 24.0753C21.6231 25.072 16.1622 25.072 10.5261 24.0753Z" fill="white"/>
<path d="M29.1706 16.2645H29.4881C30.0762 16.2645 30.5529 16.7412 30.5529 17.3293V21.0349C30.5529 21.623 30.0762 22.0998 29.4881 22.0998H29.1706V16.2645Z" fill="white"/>
<path d="M14.156 29.7398V30.3275H23.6293V29.7398C23.6293 29.1517 23.1526 28.675 22.5645 28.675H15.2209C14.6328 28.675 14.156 29.1517 14.156 29.7398Z" fill="white"/>
<path d="M8.61691 16.2645H8.29947C7.71137 16.2645 7.23462 16.7412 7.23462 17.3293V21.0349C7.23462 21.623 7.71137 22.0998 8.29947 22.0998H8.61691V16.2645Z" fill="white"/>
<path d="M18.894 9.56672C19.4821 9.56672 19.9588 9.08997 19.9588 8.50187C19.9588 7.91376 19.4821 7.43701 18.894 7.43701C18.3059 7.43701 17.8291 7.91376 17.8291 8.50187C17.8291 9.08997 18.3059 9.56672 18.894 9.56672Z" fill="white"/>
<path d="M17.9271 8.05524C18.0826 7.8918 18.3939 7.78762 18.6852 7.80443C19.1565 7.83164 19.5736 8.22695 19.606 8.70033C19.6171 8.86303 19.6089 9.21146 19.5563 9.33654C19.8345 9.14601 19.9589 8.77922 19.9589 8.50187C19.9589 7.91376 19.4821 7.43701 18.894 7.43701C18.4654 7.43701 18.0959 7.69024 17.9271 8.05524Z" fill="white"/>
<path d="M53.2868 29.3813H48.4706L55.8091 8.12378H61.6009L68.929 29.3813H64.1128L58.788 12.9815H58.622L53.2868 29.3813ZM52.9858 21.0257H64.3619V24.534H52.9858V21.0257ZM76.3837 35.6922C74.9513 35.6922 73.723 35.495 72.6989 35.1005C71.6817 34.713 70.8721 34.1837 70.27 33.5125C69.668 32.8412 69.277 32.087 69.0971 31.2497L73.1867 30.6996C73.3113 31.0179 73.5085 31.3154 73.7784 31.5922C74.0482 31.869 74.4046 32.0904 74.8475 32.2565C75.2973 32.4295 75.8439 32.516 76.4875 32.516C77.4493 32.516 78.2416 32.2807 78.8644 31.8102C79.4941 31.3466 79.809 30.5681 79.809 29.4748V26.5581H79.6221C79.4284 27.0009 79.1377 27.4196 78.7502 27.814C78.3627 28.2084 77.8645 28.5302 77.2556 28.7793C76.6466 29.0284 75.92 29.153 75.0758 29.153C73.8787 29.153 72.7888 28.8762 71.8062 28.3226C70.8305 27.7621 70.0521 26.9075 69.4708 25.7588C68.8965 24.6032 68.6093 23.1432 68.6093 21.3786C68.6093 19.5726 68.9034 18.064 69.4916 16.8531C70.0797 15.6421 70.8617 14.7356 71.8374 14.1336C72.82 13.5316 73.896 13.2306 75.0654 13.2306C75.9581 13.2306 76.7054 13.3828 77.3075 13.6873C77.9095 13.9848 78.3939 14.3585 78.7606 14.8083C79.1343 15.2512 79.4214 15.6871 79.6221 16.1161H79.7882V13.4382H84.1788V29.537C84.1788 30.8933 83.8466 32.0282 83.1823 32.9416C82.518 33.855 81.5977 34.54 80.4214 34.9968C79.2519 35.4604 77.906 35.6922 76.3837 35.6922ZM76.4771 25.8315C77.1898 25.8315 77.7918 25.655 78.2831 25.3021C78.7814 24.9423 79.162 24.4302 79.4249 23.7659C79.6948 23.0947 79.8297 22.292 79.8297 21.3579C79.8297 20.4237 79.6982 19.6141 79.4353 18.929C79.1723 18.237 78.7917 17.7008 78.2935 17.3202C77.7953 16.9396 77.1898 16.7493 76.4771 16.7493C75.7505 16.7493 75.1381 16.9465 74.6399 17.3409C74.1417 17.7284 73.7645 18.2682 73.5085 18.9602C73.2525 19.6521 73.1244 20.4514 73.1244 21.3579C73.1244 22.2782 73.2525 23.074 73.5085 23.7452C73.7714 24.4095 74.1486 24.925 74.6399 25.2918C75.1381 25.6516 75.7505 25.8315 76.4771 25.8315ZM93.5018 29.6927C91.8618 29.6927 90.4502 29.3606 89.2669 28.6963C88.0905 28.0251 87.1841 27.0771 86.5474 25.8523C85.9108 24.6205 85.5925 23.1639 85.5925 21.4824C85.5925 19.8424 85.9108 18.4031 86.5474 17.1645C87.1841 15.9258 88.0802 14.9605 89.2358 14.2685C90.3983 13.5766 91.7615 13.2306 93.3254 13.2306C94.3772 13.2306 95.3563 13.4001 96.2628 13.7392C97.1762 14.0713 97.972 14.573 98.6501 15.2442C99.3352 15.9155 99.868 16.7597 100.249 17.7769C100.629 18.7872 100.819 19.9704 100.819 21.3267V22.5411H87.357V19.8009H96.6572C96.6572 19.1643 96.5188 18.6003 96.242 18.109C95.9653 17.6177 95.5812 17.2337 95.0899 16.9569C94.6055 16.6732 94.0416 16.5313 93.398 16.5313C92.7268 16.5313 92.1317 16.687 91.6127 16.9984C91.1007 17.3029 90.6993 17.7146 90.4087 18.2336C90.118 18.7456 89.9693 19.3165 89.9623 19.9462V22.5515C89.9623 23.3404 90.1077 24.022 90.3983 24.5963C90.6958 25.1707 91.1145 25.6135 91.6542 25.9249C92.194 26.2363 92.8341 26.392 93.5745 26.392C94.0658 26.392 94.5156 26.3228 94.9238 26.1844C95.3321 26.046 95.6815 25.8384 95.9722 25.5616C96.2628 25.2848 96.4842 24.9458 96.6365 24.5444L100.726 24.8143C100.518 25.7969 100.093 26.655 99.4494 27.3885C98.8127 28.115 97.9893 28.6824 96.979 29.0907C95.9756 29.4921 94.8166 29.6927 93.5018 29.6927ZM106.665 20.1642V29.3813H102.244V13.4382H106.458V16.2511H106.645C106.997 15.3238 107.589 14.5903 108.419 14.0506C109.25 13.5039 110.257 13.2306 111.44 13.2306C112.547 13.2306 113.512 13.4728 114.336 13.9572C115.159 14.4415 115.799 15.1335 116.256 16.0331C116.713 16.9257 116.941 17.9914 116.941 19.23V29.3813H112.519V20.0189C112.526 19.0432 112.277 18.282 111.772 17.7354C111.267 17.1818 110.572 16.905 109.686 16.905C109.091 16.905 108.565 17.033 108.108 17.289C107.658 17.5451 107.305 17.9187 107.049 18.41C106.8 18.8944 106.672 19.4791 106.665 20.1642ZM126.168 29.6927C124.535 29.6927 123.13 29.3467 121.954 28.6548C120.785 27.9559 119.885 26.9871 119.255 25.7485C118.633 24.5098 118.321 23.0843 118.321 21.472C118.321 19.839 118.636 18.4066 119.266 17.1749C119.902 15.9362 120.805 14.9709 121.975 14.2789C123.144 13.58 124.535 13.2306 126.147 13.2306C127.538 13.2306 128.756 13.4831 129.801 13.9883C130.846 14.4934 131.673 15.2027 132.282 16.1161C132.891 17.0295 133.226 18.1021 133.289 19.3338H129.116C128.998 18.538 128.687 17.898 128.182 17.4136C127.684 16.9223 127.03 16.6766 126.22 16.6766C125.535 16.6766 124.936 16.8635 124.424 17.2371C123.919 17.6039 123.525 18.1402 123.241 18.846C122.957 19.5518 122.816 20.4064 122.816 21.4098C122.816 22.427 122.954 23.2919 123.231 24.0047C123.514 24.7174 123.912 25.2606 124.424 25.6343C124.936 26.008 125.535 26.1948 126.22 26.1948C126.725 26.1948 127.178 26.091 127.58 25.8834C127.988 25.6758 128.324 25.3748 128.587 24.9804C128.857 24.579 129.033 24.0981 129.116 23.5376H133.289C133.219 24.7555 132.887 25.828 132.292 26.7553C131.704 27.6756 130.891 28.3953 129.853 28.9143C128.815 29.4332 127.587 29.6927 126.168 29.6927ZM137.388 35.36C136.828 35.36 136.302 35.3151 135.81 35.2251C135.326 35.1421 134.925 35.0348 134.606 34.9033L135.603 31.6026C136.122 31.7618 136.589 31.8482 137.004 31.8621C137.426 31.8759 137.789 31.7791 138.094 31.5715C138.405 31.3639 138.658 31.011 138.852 30.5127L139.111 29.8381L133.392 13.4382H138.042L141.343 25.1464H141.509L144.841 13.4382H149.522L143.325 31.1044C143.028 31.9624 142.623 32.7098 142.111 33.3464C141.606 33.9899 140.966 34.4847 140.191 34.8307C139.416 35.1836 138.481 35.36 137.388 35.36ZM152.072 29.3813H147.256L154.594 8.12378H160.386L167.714 29.3813H162.898L157.573 12.9815H157.407L152.072 29.3813ZM151.771 21.0257H163.147V24.534H151.771V21.0257ZM168.814 29.3813V13.4382H173.236V29.3813H168.814ZM171.035 11.383C170.378 11.383 169.814 11.165 169.343 10.7291C168.88 10.2862 168.648 9.75685 168.648 9.14099C168.648 8.53205 168.88 8.0096 169.343 7.57366C169.814 7.13079 170.378 6.90936 171.035 6.90936C171.693 6.90936 172.253 7.13079 172.717 7.57366C173.187 8.0096 173.423 8.53205 173.423 9.14099C173.423 9.75685 173.187 10.2862 172.717 10.7291C172.253 11.165 171.693 11.383 171.035 11.383Z" fill="white"/>
<defs>
<linearGradient id="paint0_linear_1317_3259" x1="17.5829" y1="-2.57688e-07" x2="40.3159" y2="60.0456" gradientUnits="userSpaceOnUse">
<stop offset="0.1875" stop-color="#AB3ADD"/>
<stop offset="1" stop-color="#3B57F4"/>
</linearGradient>
</defs>
</svg>
