<svg width="162" height="37" viewBox="0 0 162 37" fill="none" xmlns="http://www.w3.org/2000/svg">
<rect x="0.0390015" y="0.998779" width="36.0023" height="36.0023" rx="7.09283" fill="#AB3ADD"/>
<rect x="0.0390015" y="0.998779" width="36.0023" height="36.0023" rx="7.09283" fill="url(#paint0_linear_1922_3096)"/>
<path d="M16.8362 19.2859C16.8362 19.9587 16.2907 20.5041 15.6179 20.5041C14.9451 20.5041 14.3996 19.9587 14.3996 19.2859C14.3996 18.613 14.9451 18.0676 15.6179 18.0676C16.2907 18.0676 16.8362 18.613 16.8362 19.2859Z" fill="white"/>
<path d="M20.4231 20.5041C21.0959 20.5041 21.6414 19.9587 21.6414 19.2859C21.6414 18.613 21.0959 18.0676 20.4231 18.0676C19.7503 18.0676 19.2049 18.613 19.2049 19.2859C19.2049 19.9587 19.7503 20.5041 20.4231 20.5041Z" fill="white"/>
<path fill-rule="evenodd" clip-rule="evenodd" d="M13.5505 13.6698C14.2651 11.895 16.0044 10.6418 18.0369 10.6408C18.0357 10.6408 18.0345 10.6408 18.0332 10.6408C18.0374 10.6407 18.0415 10.6407 18.0456 10.6408C18.0444 10.6408 18.0432 10.6408 18.042 10.6408C20.0745 10.6418 21.8138 11.895 22.5284 13.6698C23.4586 13.7334 24.3887 13.8167 25.3185 13.9199C26.4744 14.0481 27.33 15.0384 27.33 16.2014V24.9073C27.33 26.0836 26.4552 27.0803 25.2846 27.1962C20.4387 27.6761 15.6402 27.6761 10.7942 27.1962C9.62364 27.0803 8.74882 26.0836 8.74882 24.9073V16.2014C8.74882 15.0384 9.6044 14.0481 10.7604 13.9199C11.6901 13.8167 12.6202 13.7334 13.5505 13.6698ZM10.0629 23.9509L17.8653 10.9424C17.9442 10.8109 18.1347 10.8109 18.2135 10.9424L26.0159 23.9509C20.6426 24.9011 15.4363 24.9011 10.0629 23.9509Z" fill="white"/>
<path d="M27.8382 16.5043H28.1409C28.7016 16.5043 29.1561 16.9588 29.1561 17.5195V21.0523C29.1561 21.613 28.7015 22.0675 28.1409 22.0675H27.8382V16.5043Z" fill="white"/>
<path d="M13.5236 29.3514V29.9116H22.5552V29.3514C22.5552 28.7907 22.1007 28.3361 21.54 28.3361H14.5388C13.9781 28.3361 13.5236 28.7907 13.5236 29.3514Z" fill="white"/>
<path d="M8.24271 16.5043H7.94008C7.37939 16.5043 6.92487 16.9588 6.92487 17.5195V21.0523C6.92487 21.613 7.37939 22.0675 7.94008 22.0675H8.24271V16.5043Z" fill="white"/>
<path d="M18.0401 10.1187C18.6007 10.1187 19.0553 9.66416 19.0553 9.10347C19.0553 8.54278 18.6007 8.08826 18.0401 8.08826C17.4794 8.08826 17.0248 8.54278 17.0248 9.10347C17.0248 9.66416 17.4794 10.1187 18.0401 10.1187Z" fill="white"/>
<path d="M17.1198 8.67766C17.268 8.52184 17.5648 8.42252 17.8425 8.43855C18.2919 8.46449 18.6896 8.84137 18.7204 9.29268C18.731 9.44779 18.7232 9.77998 18.6731 9.89923C18.9383 9.71758 19.0568 9.36789 19.0568 9.10347C19.0568 8.54278 18.6023 8.08826 18.0416 8.08826C17.633 8.08826 17.2808 8.32968 17.1198 8.67766Z" fill="white"/>
<path d="M46.0877 29H41.496L48.4923 8.73347H54.0142L61.0006 29H56.4089L51.3324 13.3647H51.1741L46.0877 29ZM45.8007 21.0339H56.6464V24.3787H45.8007V21.0339ZM68.1077 35.0166C66.7421 35.0166 65.5711 34.8286 64.5947 34.4526C63.6249 34.0831 62.8531 33.5784 62.2791 32.9385C61.7052 32.2986 61.3324 31.5795 61.1609 30.7812L65.0598 30.2568C65.1786 30.5602 65.3666 30.8439 65.6239 31.1078C65.8812 31.3717 66.2209 31.5828 66.6432 31.7411C67.072 31.9061 67.5931 31.9885 68.2067 31.9885C69.1237 31.9885 69.8791 31.7642 70.4728 31.3156C71.0732 30.8736 71.3733 30.1314 71.3733 29.0891V26.3084H71.1952C71.0105 26.7306 70.7334 27.1297 70.364 27.5057C69.9945 27.8818 69.5195 28.1885 68.939 28.426C68.3584 28.6635 67.6657 28.7823 66.8609 28.7823C65.7195 28.7823 64.6805 28.5184 63.7437 27.9906C62.8135 27.4563 62.0713 26.6415 61.5171 25.5464C60.9696 24.4446 60.6958 23.0526 60.6958 21.3704C60.6958 19.6485 60.9762 18.2103 61.5369 17.0558C62.0977 15.9013 62.8432 15.0371 63.7734 14.4631C64.7102 13.8892 65.736 13.6022 66.851 13.6022C67.702 13.6022 68.4145 13.7473 68.9884 14.0376C69.5624 14.3213 70.0242 14.6775 70.3739 15.1063C70.7301 15.5286 71.0039 15.9442 71.1952 16.3532H71.3535V13.8001H75.5394V29.1484C75.5394 30.4415 75.2228 31.5234 74.5895 32.3942C73.9561 33.2651 73.0787 33.9182 71.9572 34.3536C70.8423 34.7956 69.5591 35.0166 68.1077 35.0166ZM68.1968 25.6156C68.8763 25.6156 69.4502 25.4474 69.9186 25.111C70.3936 24.7679 70.7565 24.2797 71.0072 23.6464C71.2645 23.0065 71.3931 22.2412 71.3931 21.3506C71.3931 20.46 71.2678 19.6881 71.0171 19.035C70.7664 18.3752 70.4035 17.864 69.9285 17.5011C69.4535 17.1383 68.8763 16.9569 68.1968 16.9569C67.5041 16.9569 66.9202 17.1449 66.4452 17.5209C65.9702 17.8904 65.6107 18.4049 65.3666 19.0646C65.1225 19.7244 65.0005 20.4863 65.0005 21.3506C65.0005 22.228 65.1225 22.9867 65.3666 23.6266C65.6173 24.2599 65.9768 24.7514 66.4452 25.1011C66.9202 25.4441 67.5041 25.6156 68.1968 25.6156ZM84.4278 29.2969C82.8643 29.2969 81.5185 28.9802 80.3903 28.3469C79.2688 27.707 78.4046 26.8031 77.7977 25.6354C77.1907 24.4611 76.8872 23.0724 76.8872 21.4693C76.8872 19.9058 77.1907 18.5336 77.7977 17.3527C78.4046 16.1718 79.2589 15.2515 80.3607 14.5918C81.469 13.932 82.7686 13.6022 84.2596 13.6022C85.2624 13.6022 86.1959 13.7638 87.0601 14.0871C87.9309 14.4037 88.6896 14.882 89.3361 15.522C89.9892 16.1619 90.4972 16.9667 90.8601 17.9365C91.2229 18.8997 91.4043 20.0278 91.4043 21.3209V22.4787H78.5695V19.8662H87.4361C87.4361 19.2593 87.3042 18.7216 87.0403 18.2532C86.7764 17.7848 86.4103 17.4187 85.9419 17.1548C85.4801 16.8843 84.9424 16.749 84.3289 16.749C83.6889 16.749 83.1216 16.8975 82.6268 17.1943C82.1386 17.4846 81.756 17.8772 81.4789 18.3719C81.2018 18.8601 81.06 19.4044 81.0534 20.0047V22.4886C81.0534 23.2407 81.1919 23.8905 81.469 24.4381C81.7527 24.9856 82.1518 25.4078 82.6664 25.7047C83.181 26.0016 83.7912 26.15 84.4971 26.15C84.9655 26.15 85.3943 26.084 85.7835 25.9521C86.1728 25.8202 86.5059 25.6222 86.783 25.3584C87.0601 25.0945 87.2712 24.7712 87.4163 24.3886L91.3153 24.6459C91.1174 25.5827 90.7116 26.4007 90.0981 27.1C89.4912 27.7927 88.7061 28.3337 87.7429 28.7229C86.7863 29.1056 85.6813 29.2969 84.4278 29.2969ZM96.9776 20.2126V29H92.762V13.8001H96.7797V16.4819H96.9578C97.2943 15.5978 97.8584 14.8985 98.65 14.384C99.4417 13.8628 100.402 13.6022 101.53 13.6022C102.585 13.6022 103.506 13.8331 104.291 14.2949C105.076 14.7567 105.686 15.4164 106.121 16.274C106.557 17.1251 106.774 18.141 106.774 19.3219V29H102.559V20.074C102.565 19.1438 102.328 18.4181 101.846 17.8969C101.365 17.3692 100.702 17.1053 99.8573 17.1053C99.2899 17.1053 98.7886 17.2273 98.3531 17.4714C97.9243 17.7155 97.5879 18.0718 97.3438 18.5402C97.1063 19.002 96.9842 19.5594 96.9776 20.2126ZM115.571 29.2969C114.014 29.2969 112.675 28.967 111.554 28.3073C110.439 27.641 109.581 26.7174 108.981 25.5365C108.387 24.3556 108.09 22.9966 108.09 21.4594C108.09 19.9025 108.39 18.5369 108.991 17.3626C109.598 16.1817 110.458 15.2614 111.573 14.6017C112.688 13.9353 114.014 13.6022 115.551 13.6022C116.878 13.6022 118.039 13.843 119.035 14.3246C120.031 14.8062 120.819 15.4824 121.4 16.3532C121.98 17.224 122.3 18.2466 122.36 19.4209H118.382C118.27 18.6622 117.973 18.052 117.491 17.5902C117.016 17.1218 116.393 16.8876 115.621 16.8876C114.968 16.8876 114.397 17.0657 113.909 17.422C113.427 17.7716 113.051 18.2829 112.781 18.9558C112.51 19.6287 112.375 20.4435 112.375 21.4001C112.375 22.3698 112.507 23.1945 112.771 23.874C113.041 24.5535 113.421 25.0714 113.909 25.4276C114.397 25.7839 114.968 25.962 115.621 25.962C116.102 25.962 116.534 25.863 116.917 25.6651C117.306 25.4672 117.626 25.1802 117.877 24.8042C118.134 24.4216 118.303 23.9631 118.382 23.4287H122.36C122.294 24.5898 121.977 25.6123 121.41 26.4964C120.849 27.3738 120.074 28.0599 119.084 28.5547C118.095 29.0495 116.924 29.2969 115.571 29.2969ZM126.268 34.7C125.734 34.7 125.232 34.6571 124.764 34.5713C124.302 34.4922 123.92 34.3899 123.616 34.2645L124.566 31.1177C125.061 31.2694 125.506 31.3519 125.902 31.3651C126.304 31.3783 126.651 31.2859 126.941 31.088C127.238 30.8901 127.479 30.5536 127.663 30.0786L127.911 29.4354L122.458 13.8001H126.892L130.038 24.9625H130.197L133.373 13.8001H137.836L131.929 30.6427C131.645 31.4607 131.259 32.1732 130.771 32.7802C130.289 33.3937 129.679 33.8654 128.94 34.1953C128.201 34.5317 127.31 34.7 126.268 34.7ZM140.203 29H137.63L145.072 8.73347H147.605L155.047 29H152.474L146.418 11.9397H146.26L140.203 29ZM141.153 21.0834H151.524V23.2605H141.153V21.0834ZM156.657 29V13.8001H158.992V29H156.657ZM157.845 11.2668C157.389 11.2668 156.997 11.1118 156.667 10.8017C156.344 10.4916 156.182 10.1189 156.182 9.68346C156.182 9.24805 156.344 8.87531 156.667 8.56524C156.997 8.25517 157.389 8.10014 157.845 8.10014C158.3 8.10014 158.689 8.25517 159.012 8.56524C159.342 8.87531 159.507 9.24805 159.507 9.68346C159.507 10.1189 159.342 10.4916 159.012 10.8017C158.689 11.1118 158.3 11.2668 157.845 11.2668Z" fill="#333333"/>
<defs>
<linearGradient id="paint0_linear_1922_3096" x1="16.7903" y1="0.998779" x2="38.4636" y2="58.245" gradientUnits="userSpaceOnUse">
<stop offset="0.1875" stop-color="#AB3ADD"/>
<stop offset="1" stop-color="#3B57F4"/>
</linearGradient>
</defs>
</svg>
