<svg width="1107" height="320" viewBox="0 0 1107 320" fill="none" xmlns="http://www.w3.org/2000/svg">
<circle cx="911.971" cy="146.856" r="130.965" stroke="url(#paint0_radial_669_3177)"/>
<circle cx="220.54" cy="70.4323" r="15.7634" fill="url(#paint1_radial_669_3177)"/>
<rect x="0.640381" y="249.246" width="6.03469" height="6.03469" rx="3.01734" fill="#E72F2F"/>
<rect x="16.675" y="249.246" width="6.03469" height="6.03469" rx="3.01734" fill="#E72F2F"/>
<rect x="32.7098" y="249.246" width="6.03469" height="6.03469" rx="3.01734" fill="#E72F2F"/>
<rect x="48.7444" y="249.246" width="6.03469" height="6.03469" rx="3.01734" fill="#E72F2F"/>
<rect x="64.7791" y="249.246" width="6.03469" height="6.03469" rx="3.01734" fill="#E72F2F"/>
<rect x="0.640381" y="265.281" width="6.03469" height="6.03469" rx="3.01734" fill="#E72F2F"/>
<rect x="16.675" y="265.281" width="6.03469" height="6.03469" rx="3.01734" fill="#E72F2F"/>
<rect x="32.7098" y="265.281" width="6.03469" height="6.03469" rx="3.01734" fill="#E72F2F"/>
<rect x="48.7444" y="265.281" width="6.03469" height="6.03469" rx="3.01734" fill="#E72F2F"/>
<rect x="64.7791" y="265.281" width="6.03469" height="6.03469" rx="3.01734" fill="#E72F2F"/>
<rect x="0.640381" y="281.316" width="6.03469" height="6.03469" rx="3.01734" fill="#E72F2F"/>
<rect x="16.675" y="281.316" width="6.03469" height="6.03469" rx="3.01734" fill="#E72F2F"/>
<rect x="32.7098" y="281.316" width="6.03469" height="6.03469" rx="3.01734" fill="#E72F2F"/>
<rect x="48.7444" y="281.316" width="6.03469" height="6.03469" rx="3.01734" fill="#E72F2F"/>
<rect x="64.7791" y="281.316" width="6.03469" height="6.03469" rx="3.01734" fill="#E72F2F"/>
<rect x="0.640381" y="297.351" width="6.03469" height="6.03469" rx="3.01734" fill="#E72F2F"/>
<rect x="16.675" y="297.351" width="6.03469" height="6.03469" rx="3.01734" fill="#E72F2F"/>
<rect x="32.7098" y="297.351" width="6.03469" height="6.03469" rx="3.01734" fill="#E72F2F"/>
<rect x="48.7444" y="297.351" width="6.03469" height="6.03469" rx="3.01734" fill="#E72F2F"/>
<rect x="64.7791" y="297.351" width="6.03469" height="6.03469" rx="3.01734" fill="#E72F2F"/>
<rect x="0.640381" y="313.385" width="6.03469" height="6.03469" rx="3.01734" fill="#E72F2F"/>
<rect x="16.675" y="313.385" width="6.03469" height="6.03469" rx="3.01734" fill="#E72F2F"/>
<rect x="32.7098" y="313.385" width="6.03469" height="6.03469" rx="3.01734" fill="#E72F2F"/>
<rect x="48.7444" y="313.385" width="6.03469" height="6.03469" rx="3.01734" fill="#E72F2F"/>
<rect x="64.7791" y="313.385" width="6.03469" height="6.03469" rx="3.01734" fill="#E72F2F"/>
<circle cx="1045" cy="61.817" r="61.3847" fill="url(#paint2_radial_669_3177)"/>
<defs>
<radialGradient id="paint0_radial_669_3177" cx="0" cy="0" r="1" gradientUnits="userSpaceOnUse" gradientTransform="translate(934.44 80.3292) rotate(98.9468) scale(144.48)">
<stop stop-color="#E72F2F"/>
<stop offset="1" stop-color="#FF4949"/>
</radialGradient>
<radialGradient id="paint1_radial_669_3177" cx="0" cy="0" r="1" gradientUnits="userSpaceOnUse" gradientTransform="translate(223.234 62.4554) rotate(98.9468) scale(17.324)">
<stop stop-color="#F16F6F"/>
<stop offset="1" stop-color="#E72F2F"/>
</radialGradient>
<radialGradient id="paint2_radial_669_3177" cx="0" cy="0" r="1" gradientUnits="userSpaceOnUse" gradientTransform="translate(1055.49 30.7538) rotate(98.9468) scale(67.4621)">
<stop stop-color="#F16F6F"/>
<stop offset="1" stop-color="#E72F2F"/>
</radialGradient>
</defs>
</svg>
